<?xml version="1.0" encoding="UTF-8"?>
<svg version="1.1" xmlns="http://www.w3.org/2000/svg" width="1200" height="1200">
<path d="M0 0 C5.75 0.875 5.75 0.875 8 2 C7.45435077 12.33857103 6.55883113 22.58635296 5.38613892 32.87130737 C1.37140778 68.48028817 -0.44771928 104.18108619 -1 140 C-4.3 140.99 -7.6 141.98 -11 143 C-11.23783203 140.47666016 -11.23783203 140.47666016 -11.48046875 137.90234375 C-14.76212907 104.85341062 -21.58834151 72.41048926 -43 46 C-43.99386719 44.74316406 -43.99386719 44.74316406 -45.0078125 43.4609375 C-56.82576876 29.37532912 -72.78146375 20.47292963 -91 18 C-110.25475796 16.74638402 -127.02292172 21.10241297 -141.92578125 33.6171875 C-143.76170818 35.31877831 -145.36209366 37.10676252 -147 39 C-147.60046143 39.67467819 -148.20092285 40.34935638 -148.81958008 41.04447937 C-155.77941954 50.18101445 -155.05683016 59.73610633 -155 70.70703125 C-155.00981559 72.72044279 -155.02140344 74.73384639 -155.03466797 76.74723816 C-155.05393744 80.95432704 -155.04710932 85.16037914 -155.02246094 89.36743164 C-154.9938228 94.72428655 -155.03745846 100.07771972 -155.10186768 105.43416309 C-155.14243872 109.58942816 -155.14041827 113.74389029 -155.12646484 117.89929771 C-155.12549996 119.87223194 -155.1381794 121.84522728 -155.16552734 123.81797218 C-155.36070937 140.33546068 -151.69684625 148.97112994 -140.3125 161.1875 C-135.40394484 165.83134109 -130.13310264 169.96969606 -124.77734375 174.078125 C-120.7649916 177.16018329 -116.85120681 180.35671093 -112.9375 183.5625 C-107.18162479 188.26125759 -101.36253832 192.85063273 -95.453125 197.35546875 C-92.90705744 199.29785265 -90.379753 201.26267845 -87.859375 203.23828125 C-77.83724724 211.09154842 -67.67925895 218.72832472 -57.39990234 226.24121094 C-54.98623563 228.01008733 -52.57991216 229.78850165 -50.17578125 231.5703125 C-42.57404538 237.20102796 -34.94290882 242.77000211 -27.1875 248.1875 C3.66404349 269.82360097 23.41688665 294.93753953 30.45703125 332.5703125 C36.94178544 373.53156556 30.23618777 418.37899884 5.5625 452.4375 C-22.68526905 488.04560323 -60.93534957 505.72043349 -105.57575989 511.37466431 C-113.2280472 512.24499712 -120.86957739 512.30092728 -128.56347656 512.26074219 C-130.99829997 512.2500075 -133.43238597 512.26072058 -135.8671875 512.2734375 C-137.4739599 512.27211548 -139.08073186 512.26955221 -140.6875 512.265625 C-141.38593018 512.26967346 -142.08436035 512.27372192 -142.80395508 512.27789307 C-147.73493635 512.23398169 -152.4856327 511.6816766 -157.36962891 510.99780273 C-166.71601064 509.73463321 -175.98169532 509.72821438 -185.3984375 509.76953125 C-187.24467944 509.77072972 -189.090922 509.77117481 -190.93716431 509.7709198 C-194.79473741 509.7724734 -198.65221627 509.78066228 -202.50976562 509.79418945 C-207.34320842 509.81096422 -212.17654715 509.81492566 -217.01001549 509.81436443 C-236.70718963 509.81497587 -256.38622703 509.96067192 -276.07260132 510.64826965 C-286.71943116 511.01969637 -297.34795179 511.1101936 -308 511 C-307.8864371 509.35333797 -307.75882619 507.70763918 -307.625 506.0625 C-307.55539062 505.14597656 -307.48578125 504.22945312 -307.4140625 503.28515625 C-307.27742188 502.53105469 -307.14078125 501.77695312 -307 501 C-304.76264622 499.88132311 -303.07831403 499.68151721 -300.59765625 499.38671875 C-284.28167732 497.77420382 -284.28167732 497.77420382 -269.9375 490.5625 C-266.12605532 485.52155703 -265.65210141 480.82339119 -265.45288086 474.64453125 C-265.41800882 473.76789825 -265.38313679 472.89126526 -265.34720802 471.98806763 C-265.22994903 468.92983945 -265.12809281 465.87131474 -265.02734375 462.8125 C-264.98806196 461.70238556 -264.94878017 460.59227112 -264.90830803 459.44851685 C-263.44522464 417.99492689 -262.70593076 376.51402104 -261.80341953 335.04551452 C-261.50629155 321.39899982 -261.20391855 307.75260195 -260.90161133 294.10620117 C-260.79126454 289.12242217 -260.68096427 284.13864214 -260.57069397 279.15486145 C-260.54349704 277.92575143 -260.51630012 276.69664141 -260.48827904 275.43028563 C-260.29737363 266.79860677 -260.10735046 258.16690875 -259.91770935 249.53520203 C-259.31469283 222.09909582 -258.70023766 194.66330283 -258.06404138 167.2279458 C-257.97207542 163.25816135 -257.88053841 159.28836701 -257.78898621 155.318573 C-257.71928327 152.29766812 -257.64956285 149.27676365 -257.57983398 146.25585938 C-257.56311185 145.53131758 -257.54638972 144.80677578 -257.52916086 144.06027818 C-257.35322388 136.44012955 -257.17628749 128.82000689 -256.99636841 121.19995117 C-256.84810321 114.9169558 -256.70268485 108.63390085 -256.55939865 102.35079002 C-256.50853433 100.14363211 -256.4566255 97.9364979 -256.40343094 95.72939491 C-256.02036501 79.81766259 -255.94218001 63.91613409 -256 48 C-278.75179931 128.17082384 -301.0024798 208.47160113 -322.64190674 288.9498291 C-324.07417431 294.2763212 -325.5075116 299.60252521 -326.94091797 304.92871094 C-336.11303535 339.01155527 -345.2806345 373.09562322 -354.40681839 407.19079971 C-355.15963079 410.00297632 -355.91269644 412.81508498 -356.66586304 415.62716675 C-356.91069994 416.54131788 -357.15553684 417.45546902 -357.40779305 418.3973217 C-357.8957298 420.21910878 -358.38367905 422.04089251 -358.87164116 423.86267281 C-360.03206232 428.1956449 -361.19168016 432.52882854 -362.3493042 436.86254883 C-362.56665915 437.67606874 -362.78401409 438.48958866 -363.00795555 439.3277607 C-363.43887863 440.94067654 -363.86967753 442.55362557 -364.30034828 444.16660881 C-365.33166284 448.02478312 -366.36901216 451.8811388 -367.4203186 455.73391724 C-367.82458027 457.21662801 -368.22874567 458.69936503 -368.6328125 460.18212891 C-368.830333 460.90648195 -369.02785351 461.630835 -369.23135948 462.37713814 C-370.45703383 466.90295784 -371.61604474 471.44106687 -372.73240662 475.99504185 C-373.47452769 479.00216941 -374.24575125 482.00140468 -375.02163696 484.9999752 C-375.37765572 486.40646952 -375.72015189 487.81646741 -376.04794312 489.2298069 C-378.5357501 499.93000591 -378.5357501 499.93000591 -381.95762634 502.43052673 C-384.31944916 503.25196821 -386.52553897 503.65741716 -389 504 C-390.50825215 504.4014837 -392.01180289 504.82106363 -393.51000977 505.25854492 C-395.06968024 505.66888664 -396.63017557 506.07610372 -398.19140625 506.48046875 C-399.02212143 506.69818436 -399.85283661 506.91589996 -400.70872498 507.14021301 C-403.32592452 507.82545381 -405.94418146 508.5065489 -408.5625 509.1875 C-410.35228556 509.65532353 -412.14199978 510.12342006 -413.93164062 510.59179688 C-418.28694328 511.73101784 -422.64319839 512.86652574 -427 514 C-428.64098791 510.96551571 -429.6557129 508.01631499 -430.56542969 504.69213867 C-430.86102783 503.62094284 -431.15662598 502.54974701 -431.46118164 501.4460907 C-431.77821045 500.28181046 -432.09523926 499.11753021 -432.421875 497.91796875 C-432.93710984 496.04828917 -433.45235461 494.1786123 -433.96800995 492.30904865 C-434.51766644 490.31420907 -435.065567 488.31889349 -435.61315918 486.32348633 C-437.53944851 479.30911613 -439.48687293 472.30060411 -441.4375 465.29296875 C-441.63364647 464.58823299 -441.82979294 463.88349724 -442.03188324 463.15740585 C-447.41290171 443.84004055 -453.13183831 424.6293121 -458.95574951 405.44140625 C-459.89069502 402.36022279 -460.82440138 399.27866659 -461.7575531 396.19693947 C-475.46505616 350.92883045 -489.38441513 305.72764185 -503.41829109 260.55969238 C-552.36627647 103.01914414 -552.36627647 103.01914414 -568 48 C-568.32996142 154.38375171 -567.03737673 260.76395778 -563.9375 394.3125 C-563.91726398 395.12579773 -563.89702797 395.93909546 -563.87617874 396.77703857 C-563.48244442 412.55533882 -563.0533113 428.33207736 -562.4921875 444.10546875 C-562.4549205 445.18516434 -562.4176535 446.26485992 -562.3792572 447.37727356 C-561.87406424 470.01416827 -561.87406424 470.01416827 -551 489 C-547.17622679 491.66750624 -543.8125757 492.67151036 -539.24609375 493.51953125 C-538.59684433 493.64165482 -537.94759491 493.76377838 -537.27867126 493.88960266 C-529.5664899 495.31430816 -521.81504856 496.5070124 -514.0625 497.6875 C-512.58914551 497.91440731 -511.11583796 498.14161959 -509.64257812 498.36914062 C-506.09558296 498.91625627 -502.54798191 499.45931541 -499 500 C-497.68461673 504.15771494 -498.65566932 506.8879297 -500 511 C-509.53208962 511.0968271 -519.04016014 511.08401686 -528.5643158 510.64511108 C-544.08315009 509.93187963 -559.58511556 509.84471876 -575.1159668 509.86962891 C-578.73486331 509.8753636 -582.35368681 509.87191761 -585.97258091 509.86617756 C-599.71170714 509.84780679 -613.42532776 509.85793263 -627.14013672 510.77954102 C-633.42705343 511.13862298 -639.70483845 511.08468827 -646 511 C-646.02688151 509.35425434 -646.04634123 507.70838587 -646.0625 506.0625 C-646.07410156 505.14597656 -646.08570313 504.22945312 -646.09765625 503.28515625 C-646 501 -646 501 -645 500 C-641.96013425 499.52746641 -638.9232868 499.09803808 -635.875 498.6875 C-616.23291124 496.43963675 -616.23291124 496.43963675 -600.33203125 486.01953125 C-588.03519403 467.89308231 -590.05695891 441.603157 -589.59373665 420.61288834 C-589.49619269 416.21606997 -589.38967382 411.81946742 -589.28344727 407.42285156 C-589.26110362 406.49414057 -589.23875998 405.56542957 -589.21573925 404.60857582 C-588.95523661 393.9279999 -588.63624344 383.24924657 -588.31640625 372.5703125 C-588.19292964 368.4244057 -588.0698002 364.27848864 -587.94677734 360.13256836 C-587.91553929 359.0800246 -587.88430124 358.02748083 -587.85211658 356.9430418 C-585.44186658 275.5599209 -583.69982457 194.16686354 -583.06329441 112.74953842 C-583.01533674 106.67880717 -582.95780237 100.60821212 -582.89697266 94.53759766 C-582.82255405 87.03952309 -582.764419 79.54151779 -582.72678757 72.04316521 C-582.70747855 68.21233413 -582.68242885 64.38180449 -582.64056396 60.55114746 C-582.59574191 56.39988509 -582.58327819 52.24915073 -582.57421875 48.09765625 C-582.55676102 46.89268997 -582.53930328 45.68772369 -582.52131653 44.44624329 C-582.53882059 37.62520928 -583.12198026 31.79176456 -587 26 C-595.66619554 19.41369139 -606.91997069 18.41904126 -617.4375 17.375 C-619.74898556 17.1355734 -622.06020019 16.89351209 -624.37109375 16.6484375 C-625.8859436 16.49640869 -625.8859436 16.49640869 -627.43139648 16.34130859 C-630 16 -630 16 -633 15 C-633 11.7 -633 8.4 -633 5 C-625.69444675 4.94773616 -618.41838337 5.02271891 -611.11997986 5.34939575 C-592.14765663 6.19339577 -573.17544012 6.15328692 -554.18823242 6.13037109 C-549.37506195 6.12463833 -544.56194686 6.12799305 -539.74877834 6.13394356 C-535.965862 6.13759422 -532.18295835 6.13639075 -528.40004158 6.13381577 C-526.62665869 6.1331608 -524.85327454 6.13392317 -523.07989311 6.13629532 C-513.21803597 6.1466158 -503.41437486 5.93042166 -493.56861782 5.35116768 C-487.70714221 5.0117142 -481.87195565 4.88124135 -476 5 C-475.80118729 5.65767868 -475.60237457 6.31535736 -475.39753723 6.9929657 C-470.43605111 23.36428549 -465.21357251 39.62348773 -459.6875 55.8125 C-459.30693451 56.93097321 -458.92636902 58.04944641 -458.53427124 59.20181274 C-450.36620901 83.19100831 -441.82093101 107.04080852 -433.21044922 130.87402344 C-429.91045745 140.01248975 -426.64089968 149.16180539 -423.375 158.3125 C-422.92599838 159.57012146 -422.92599838 159.57012146 -422.46792603 160.85314941 C-405.11404749 209.46715328 -387.94667377 258.13880803 -371.43212891 307.04492188 C-367.70969264 318.06254805 -363.98748008 329.07490232 -360 340 C-333.1979899 257.61716986 -307.91021697 174.75238087 -259 5 C-257.6996582 5.0707373 -256.39931641 5.14147461 -255.05957031 5.21435547 C-237.59879794 6.08899512 -220.1613927 6.15488326 -202.68408203 6.13037109 C-198.58580245 6.12469326 -194.48758815 6.12804657 -190.38931084 6.13381958 C-174.19174444 6.15306455 -158.03049484 6.02742899 -141.84359741 5.36972046 C-131.06697111 4.93644309 -120.29904756 4.77995259 -109.51416016 4.75976562 C-107.40344901 4.75319941 -105.29274918 4.73940755 -103.18212891 4.71875 C-86.22941485 4.55287724 -70.16689389 5.62143181 -53.875 10.6875 C-53.05008057 10.94096191 -52.22516113 11.19442383 -51.37524414 11.45556641 C-38.60353592 15.55579512 -27.53066427 21.69697625 -17 30 C-15.66884313 31.00289539 -14.33626981 32.00392732 -13 33 C-12.83673218 31.96709839 -12.83673218 31.96709839 -12.67016602 30.91333008 C-11.89102505 27.52626664 -10.66064322 24.57558806 -9.27734375 21.38671875 C-9.01240616 20.77230423 -8.74746857 20.15788971 -8.47450256 19.52485657 C-7.63337662 17.57706836 -6.78555741 15.63227882 -5.9375 13.6875 C-5.36348661 12.36152097 -4.7899142 11.03535095 -4.21679688 9.70898438 C-2.81629428 6.47043034 -1.40977678 3.23452947 0 0 Z M-156 290 C-156.0620412 312.71444342 -155.92231245 335.41994852 -155.59634399 358.13203812 C-155.56185164 360.54536412 -155.52815184 362.95870015 -155.49462891 365.37203979 C-155.15701338 389.58645912 -154.78375124 413.79955614 -154.05926514 438.00604248 C-154.00127036 439.95725927 -153.9461595 441.90856109 -153.89111328 443.85986328 C-154.52185841 469.27657681 -154.52185841 469.27657681 -145.5625 491.875 C-140.26070595 496.2716097 -135.10088486 496.78512033 -128.4375 497.6875 C-127.49841797 497.82994141 -126.55933594 497.97238281 -125.59179688 498.11914062 C-109.21735214 500.37807226 -93.53579842 496.54494481 -80 487 C-63.15296904 474.20449686 -55.58205379 456.46530034 -52 436 C-51.86722656 435.24589844 -51.73445312 434.49179687 -51.59765625 433.71484375 C-48.12854311 409.05087497 -52.59808014 382.82934492 -66.91015625 362.25390625 C-73.83865236 353.20416083 -82.54054757 346.47445301 -91.55078125 339.62890625 C-95.01817451 336.99368737 -98.45162221 334.31706798 -101.875 331.625 C-102.45266113 331.17092773 -103.03032227 330.71685547 -103.62548828 330.24902344 C-108.59625838 326.33332433 -113.53000811 322.37205767 -118.46435547 318.41064453 C-123.47317605 314.39917272 -128.55158419 310.48726659 -133.65234375 306.59375 C-136.1298846 304.68875324 -138.57235327 302.74459414 -141.00390625 300.78125 C-142.01710938 299.96333984 -142.01710938 299.96333984 -143.05078125 299.12890625 C-144.36208102 298.06713537 -145.67080987 297.00217906 -146.9765625 295.93359375 C-147.57339844 295.45019531 -148.17023438 294.96679688 -148.78515625 294.46875 C-149.30988525 294.04013672 -149.83461426 293.61152344 -150.37524414 293.16992188 C-152.16581217 291.88060527 -154.02013388 290.96662826 -156 290 Z " fill="#FFFFFF" transform="translate(898,303)"/>
</svg>
